<?xml version="1.0" encoding="utf-8"?>
<svg version="1.1" xmlns="http://www.w3.org/2000/svg" xmlns:xlink="http://www.w3.org/1999/xlink" width="76" height="1000">
  <defs>
    <symbol id="fuel">
      <path d="M 42.75,19L 42.75,31.4977C 44.5834,31.378 48.9184,32.7881 48.2917,49.0833C 49.0833,53.8333 54.625,53.8333 55.8125,47.5C 57,42.75 53.8333,42.75 52.25,28.5C 52.25,26.9167 52.25,22.1667 45.9167,19L 45.9167,17.4167C 52.25,17.4167 57,25.3333 57,26.9167C 57,28.5 55.4167,28.5 55.4167,28.5C 55.4167,28.5 55.8125,38 57.3958,39.5833C 58.9792,41.1667 58.5833,45.9167 58.5833,49.0833C 58.5833,52.25 53.8333,55.4167 52.25,55.4167C 50.6667,55.4167 45.9167,55.4167 45.9167,50.6667C 45.9167,46.3403 45.2599,36.7598 42.75,35.0854L 42.75,55.4167C 43.6244,55.4167 44.3333,56.1255 44.3333,57L 44.3333,60.1667L 19,60.1667L 19,57C 19,56.1255 19.7089,55.4167 20.5833,55.4167L 20.5833,19C 20.5833,17.2511 22.0011,15.8333 23.75,15.8333L 39.5833,15.8333C 41.3322,15.8333 42.75,17.2511 42.75,19 Z M 25.7291,33.2501L 37.6041,33.25C 38.4786,33.25 39.5833,32.1453 39.5833,31.2709L 39.5833,20.9792C 39.5833,20.1048 38.4786,19 37.6041,19L 25.7292,19C 24.8547,19 23.75,20.1048 23.75,20.9792L 23.75,31.2709C 23.75,32.1453 24.8547,33.2501 25.7291,33.2501 Z "/>
    </symbol>

    <symbol id="files">
      <path d="M 19,38L 19,22L 24,22L 24,20L 29,20L 29,19L 46.75,19L 57,29.25L 57,38L 59,38L 59,57L 58.5833,57L 17.4167,57L 17,57L 17,38L 19,38 Z M 24,38L 24,25L 22,25L 22,38L 24,38 Z M 27,23L 27,38L 29,38L 29,23L 27,23 Z M 43,46L 43,49L 33,49L 33,46L 43,46 Z M 54,38L 54,33L 43,33L 43,22L 32,22L 32,38L 54,38 Z M 46,22.75L 46,30L 53.25,30L 46,22.75 Z M 21,42L 21,53L 55,53L 55,42L 21,42 Z "/>
    </symbol>

    <symbol id="pencil">
      <path d="M 53.2929,21.2929L 54.7071,22.7071C 56.4645,24.4645 56.4645,27.3137 54.7071,29.0711L 52.2323,31.5459L 44.4541,23.7677L 46.9289,21.2929C 48.6863,19.5355 51.5355,19.5355 53.2929,21.2929 Z M 31.7262,52.052L 23.948,44.2738L 43.0399,25.182L 50.818,32.9601L 31.7262,52.052 Z M 23.2409,47.1023L 28.8977,52.7591L 21.0463,54.9537L 23.2409,47.1023 Z "/>
    </symbol>

    <symbol id="tiles-plus">
      <path d="M 18,40L 36,40L 36,58L 18,58L 18,40 Z M 40,58L 40,40L 58,40L 58,58L 40,58 Z M 40,36L 40,18L 58,18L 58,36L 40,36 Z M 29,36L 25,36L 25,29L 18,29L 18,25L 25,25L 25,18L 29,18L 29,25L 36,25L 36,29L 29,29L 29,36 Z "/>
    </symbol>

    <symbol id="ship">
      <path d="M 47.9513,35.922C 47.9513,34.2839 47.1908,33.4649 45.6697,33.4649C 44.1346,33.4649 43.367,34.2839 43.367,35.922C 43.367,37.5928 44.1346,38.4282 45.6697,38.4282C 47.1908,38.4282 47.9513,37.5928 47.9513,35.922 Z M 20.5833,53.8333L 15.8333,38L 25.3333,38L 25.3333,28.5L 30.0833,28.5L 32.4583,20.5833L 38,20.5833L 38,28.5L 50.6667,28.5L 50.6667,33.25L 55.4167,33.25L 55.4167,38L 60.1667,38L 55.4167,53.8333L 20.5833,53.8333 Z M 40.4887,35.922C 40.4887,34.2839 39.7282,33.4649 38.2071,33.4649C 36.6579,33.4649 35.8834,34.2839 35.8834,35.922C 35.8834,37.5928 36.6579,38.4282 38.2071,38.4282C 39.7282,38.4282 40.4887,37.5928 40.4887,35.922 Z M 33.1595,35.922C 33.1595,34.2839 32.3849,33.4649 30.8358,33.4649C 29.2866,33.4649 28.512,34.2839 28.512,35.922C 28.512,37.5928 29.2866,38.4282 30.8358,38.4282C 32.3849,38.4282 33.1595,37.5928 33.1595,35.922 Z "/>
    </symbol>

    <symbol id="water">
      <path d="M 38,19C 40,28 50,36 50,44C 50,52 43,57 38,57C 33,57 26,52 26,44C 26,36 36,28 38,19 Z M 44,35C 44,35 47,40 45.5,50.75C 52,43 44,35 44,35 Z "/>
    </symbol>

    <symbol id="trash">
      <path d="M 25.3333,23.75L 50.6667,23.75C 51.5411,23.75 51.8541,27.3125 51.8541,27.3125L 24.1458,27.3125C 24.1458,27.3125 24.4589,23.75 25.3333,23.75 Z M 35.625,19.7917L 40.375,19.7917C 40.8122,19.7917 41.9583,20.9378 41.9583,21.375C 41.9583,21.8122 40.8122,22.9584 40.375,22.9584L 35.625,22.9584C 35.1878,22.9584 34.0416,21.8122 34.0416,21.375C 34.0416,20.9378 35.1878,19.7917 35.625,19.7917 Z M 27.7083,28.5L 48.2916,28.5C 49.1661,28.5 49.875,29.2089 49.875,30.0834L 48.2916,53.8334C 48.2916,54.7078 47.5828,55.4167 46.7083,55.4167L 29.2917,55.4167C 28.4172,55.4167 27.7083,54.7078 27.7083,53.8334L 26.125,30.0834C 26.125,29.2089 26.8339,28.5 27.7083,28.5 Z M 30.0833,31.6667L 30.4792,52.25L 33.25,52.25L 32.8542,31.6667L 30.0833,31.6667 Z M 36.4167,31.6667L 36.4167,52.25L 39.5833,52.25L 39.5833,31.6667L 36.4167,31.6667 Z M 43.1458,31.6667L 42.75,52.25L 45.5208,52.25L 45.9167,31.6667L 43.1458,31.6667 Z "/>
    </symbol>

    <symbol id="people">
      <path d="M 38,17C 40.9455,17 43.3333,19.3878 43.3333,22.3333C 43.3333,25.2788 40.9455,27.6667 38,27.6667C 35.0545,27.6667 32.6667,25.2788 32.6667,22.3333C 32.6667,19.3878 35.0545,17 38,17 Z M 32.6666,34.3834C 31.9555,34.7389 30.7833,37.8333 31.4262,38.2501L 27.964,37.6132C 30.3193,36.76 30.7911,35.3344 30.9823,32.7335L 30.8009,31.1163C 31.5744,30.4725 32.7185,29.0501 33.7333,29.0502L 42.2666,29.0502C 43.3037,29.0501 44.2149,29.4913 44.9999,30.1593L 45.4999,32.0001C 45.4999,34.1736 47.1556,34.8271 48.886,35.8798L 46.4666,35.8292C 45.8376,35.8068 45.2551,35.9483 44.7188,36.2059C 44.2645,35.4252 43.7029,34.5682 43.3333,34.3834L 43.4534,37.0835C 41.1956,39.1569 40.0666,43.0679 40.0666,43.0679L 39.6764,45.0053L 38.5333,45.05C 37.7661,45.05 37.0129,44.99 36.2782,44.8745C 35.6933,43.3208 34.4183,40.5162 32.4533,39.2079L 32.6666,34.3834 Z M 24.7333,26.95C 27.6789,26.95 30.0667,29.3378 30.0667,32.2833C 30.0667,35.2288 27.6789,37.6167 24.7333,37.6167C 21.7878,37.6167 19.4,35.2288 19.4,32.2833C 19.4,29.3378 21.7878,26.95 24.7333,26.95 Z M 19.4,44.3333C 18.6889,44.6889 17.2667,47.5333 17.2667,47.5333C 17.2667,47.5333 16.5556,48.6 16.2,52.8666L 13,51.8L 14.0667,46.4667C 14.0667,46.4667 16.2,39 20.4666,39.0001L 28.9999,39.0001C 33.2667,39 35.4,46.4667 35.4,46.4667L 36.4666,51.8L 33.2667,52.8667C 32.9111,48.6 32.2001,47.5333 32.2001,47.5333C 32.2001,47.5333 30.7778,44.6889 30.0667,44.3333L 30.4976,54.0204C 28.8762,54.6529 27.112,55 25.2667,55C 23.0173,55 20.8884,54.4843 18.9918,53.5646L 19.4,44.3333 Z M 51.7333,24.931C 54.6788,25.0359 57.0667,27.5087 57.0667,30.4542C 57.0667,33.3997 54.6788,35.7025 51.7333,35.5977C 48.7878,35.4928 46.4,33.02 46.4,30.0745C 46.4,27.129 48.7878,24.8262 51.7333,24.931 Z M 46.4,42.1245C 45.6889,42.4547 44.2667,45.2485 44.2667,45.2485C 44.2667,45.2485 43.5556,46.2898 43.2,50.5438L 40,49.3632L 41.0667,44.0679C 41.0667,44.0679 43.2,36.6772 47.4666,36.8292L 55.9999,37.133C 60.2667,37.2848 62.4,44.8274 62.4,44.8274L 63.4666,50.1988L 60.2667,51.1515C 59.9111,46.8722 59.2001,45.7802 59.2001,45.7802C 59.2001,45.7802 57.7778,42.8851 57.0667,42.5042L 57.4976,52.2067C 55.8762,52.7814 54.112,53.0657 52.2667,53C 50.0173,52.9199 47.8884,52.3284 45.9918,51.3412L 46.4,42.1245 Z "/>
    </symbol>
  </defs>

  <use xlink:href="#fuel"/>
  <use xlink:href="#files" transform="translate(0, 70)"/>
  <use xlink:href="#pencil" transform="translate(0, 140)"/>
  <use xlink:href="#tiles-plus" transform="translate(0, 210)"/>
  <use xlink:href="#ship" transform="translate(0, 280)"/>
  <use xlink:href="#water" transform="translate(0, 350)"/>
  <use xlink:href="#trash" transform="translate(0, 420)"/>
  <use xlink:href="#people" transform="translate(0, 490)"/>
</svg>
