<?xml version="1.0" encoding="utf-8"?>
<svg version="1.1" xmlns="http://www.w3.org/2000/svg" xmlns:xlink="http://www.w3.org/1999/xlink" width="48" height="1000">
  <defs>
    <symbol id="options">
      <path d="m7 7q0-0.828-0.586-1.414t-1.414-0.586-1.414 0.586-0.586 1.414 0.586 1.414 1.414 0.586 1.414-0.586 0.586-1.414zm6 4q0-0.406-0.297-0.703t-0.703-0.297-0.703 0.297-0.297 0.703q0 0.414 0.293 0.707t0.707 0.293 0.707-0.293 0.293-0.707zm0-8q0-0.406-0.297-0.703t-0.703-0.297-0.703 0.297-0.297 0.703q0 0.414 0.293 0.707t0.707 0.293 0.707-0.293 0.293-0.707zm-3 3.289v1.445q0 0.078-0.055 0.152t-0.125 0.082l-1.211 0.187q-0.086 0.273-0.25 0.594 0.266 0.375 0.703 0.898 0.055 0.078 0.055 0.156 0 0.094-0.055 0.148-0.18 0.234-0.645 0.699t-0.613 0.465q-0.086 0-0.164-0.055l-0.898-0.703q-0.289 0.148-0.602 0.242-0.086 0.844-0.18 1.211-0.055 0.187-0.234 0.187h-1.453q-0.086 0-0.156-0.059t-0.078-0.137l-0.18-1.195q-0.266-0.078-0.586-0.242l-0.922 0.695q-0.055 0.055-0.156 0.055-0.086 0-0.164-0.062-1.125-1.039-1.125-1.25 0-0.07 0.055-0.148 0.078-0.109 0.32-0.414t0.367-0.477q-0.18-0.344-0.273-0.641l-1.187-0.187q-0.078-0.008-0.133-0.074t-0.055-0.152v-1.445q0-0.078 0.055-0.152t0.125-0.082l1.211-0.187q0.086-0.273 0.25-0.594-0.266-0.375-0.703-0.898-0.055-0.086-0.055-0.156 0-0.094 0.055-0.156 0.172-0.234 0.641-0.695t0.617-0.461q0.086 0 0.164 0.055l0.898 0.703q0.266-0.141 0.602-0.25 0.086-0.844 0.18-1.203 0.055-0.187 0.234-0.187h1.453q0.086 0 0.156 0.059t0.078 0.137l0.18 1.195q0.266 0.078 0.586 0.242l0.922-0.695q0.062-0.055 0.156-0.055 0.086 0 0.164 0.062 1.125 1.039 1.125 1.25 0 0.07-0.055 0.148-0.094 0.125-0.328 0.422t-0.352 0.469q0.18 0.375 0.266 0.641l1.187 0.18q0.078 0.016 0.133 0.082t0.055 0.152zm5 4.164v1.094q0 0.125-1.164 0.242-0.094 0.211-0.234 0.406 0.398 0.883 0.398 1.078 0 0.031-0.031 0.055-0.953 0.555-0.969 0.555-0.062 0-0.359-0.367t-0.406-0.531q-0.156 0.016-0.234 0.016t-0.234-0.016q-0.109 0.164-0.406 0.531t-0.359 0.367q-0.016 0-0.969-0.555-0.031-0.023-0.031-0.055 0-0.195 0.398-1.078-0.141-0.195-0.234-0.406-1.164-0.117-1.164-0.242v-1.094q0-0.125 1.164-0.242 0.102-0.227 0.234-0.406-0.398-0.883-0.398-1.078 0-0.031 0.031-0.055 0.031-0.016 0.273-0.156t0.461-0.266 0.234-0.125q0.062 0 0.359 0.363t0.406 0.527q0.156-0.016 0.234-0.016t0.234 0.016q0.398-0.555 0.719-0.875l0.047-0.016q0.031 0 0.969 0.547 0.031 0.023 0.031 0.055 0 0.195-0.398 1.078 0.133 0.18 0.234 0.406 1.164 0.117 1.164 0.242zm0-8v1.094q0 0.125-1.164 0.242-0.094 0.211-0.234 0.406 0.398 0.883 0.398 1.078 0 0.031-0.031 0.055-0.953 0.555-0.969 0.555-0.062 0-0.359-0.367t-0.406-0.531q-0.156 0.016-0.234 0.016t-0.234-0.016q-0.109 0.164-0.406 0.531t-0.359 0.367q-0.016 0-0.969-0.555-0.031-0.023-0.031-0.055 0-0.195 0.398-1.078-0.141-0.195-0.234-0.406-1.164-0.117-1.164-0.242v-1.094q0-0.125 1.164-0.242 0.102-0.227 0.234-0.406-0.398-0.883-0.398-1.078 0-0.031 0.031-0.055 0.031-0.016 0.273-0.156t0.461-0.266 0.234-0.125q0.062 0 0.359 0.363t0.406 0.527q0.156-0.016 0.234-0.016t0.234 0.016q0.398-0.555 0.719-0.875l0.047-0.016q0.031 0 0.969 0.547 0.031 0.023 0.031 0.055 0 0.195-0.398 1.078 0.133 0.18 0.234 0.406 1.164 0.117 1.164 0.242z"/>
    </symbol>

    <symbol id="fuel">
      <path d="m0 0h48v48h-48z" fill="none"/>
      <path d="m39.54 14.46l0.03-0.03-7.45-7.43-2.12 2.12 4.22 4.22c-1.88 0.72-3.22 2.53-3.22 4.66 0 2.76 2.24 5 5 5 0.71 0 1.39-0.15 2-0.42v14.42c0 1.1-0.9 2-2 2s-2-0.9-2-2v-9c0-2.21-1.79-4-4-4h-2v-14c0-2.21-1.79-4-4-4h-12c-2.21 0-4 1.79-4 4v32h20v-15h3v10c0 2.76 2.24 5 5 5s5-2.24 5-5v-19c0-1.38-0.56-2.63-1.46-3.54zm-15.54 5.54h-12v-10h12v10zm12 0c-1.1 0-2-0.9-2-2s0.9-2 2-2 2 0.9 2 2-0.9 2-2 2z"/>
    </symbol>

    <symbol id="map-marker">
      <path d="m6 5q0-0.828-0.586-1.414t-1.414-0.586-1.414 0.586-0.586 1.414 0.586 1.414 1.414 0.586 1.414-0.586 0.586-1.414zm2 0q0 0.852-0.258 1.398l-2.844 6.047q-0.125 0.258-0.371 0.406t-0.527 0.148-0.527-0.148-0.363-0.406l-2.852-6.047q-0.258-0.547-0.258-1.398 0-1.656 1.172-2.828t2.828-1.172 2.828 1.172 1.172 2.828z"/>
    </symbol>

    <symbol id="pencil">
      <path d="m2.836 12l0.711-0.711-1.836-1.836-0.711 0.711v0.836h1v1h0.836zm4.086-7.25q0-0.172-0.172-0.172-0.078 0-0.133 0.055l-4.234 4.234q-0.055 0.055-0.055 0.133 0 0.172 0.172 0.172 0.078 0 0.133-0.055l4.234-4.234q0.055-0.055 0.055-0.133zm-0.422-1.5l3.25 3.25-6.5 6.5h-3.25v-3.25zm5.336 0.75q0 0.414-0.289 0.703l-1.297 1.297-3.25-3.25 1.297-1.289q0.281-0.297 0.703-0.297 0.414 0 0.711 0.297l1.836 1.828q0.289 0.305 0.289 0.711z"/>
    </symbol>

    <symbol id="plus-square-o">
      <path d="m9 6.25v0.5q0 0.109-0.07 0.18t-0.18 0.07h-2.75v2.75q0 0.109-0.07 0.18t-0.18 0.07h-0.5q-0.109 0-0.18-0.07t-0.07-0.18v-2.75h-2.75q-0.109 0-0.18-0.07t-0.07-0.18v-0.5q0-0.109 0.07-0.18t0.18-0.07h2.75v-2.75q0-0.109 0.07-0.18t0.18-0.07h0.5q0.109 0 0.18 0.07t0.07 0.18v2.75h2.75q0.109 0 0.18 0.07t0.07 0.18zm1 3.5v-6.5q0-0.516-0.367-0.883t-0.883-0.367h-6.5q-0.516 0-0.883 0.367t-0.367 0.883v6.5q0 0.516 0.367 0.883t0.883 0.367h6.5q0.516 0 0.883-0.367t0.367-0.883zm1-6.5v6.5q0 0.93-0.66 1.59t-1.59 0.66h-6.5q-0.93 0-1.59-0.66t-0.66-1.59v-6.5q0-0.93 0.66-1.59t1.59-0.66h6.5q0.93 0 1.59 0.66t0.66 1.59z"/>
    </symbol>

    <symbol id="ship">
      <path d="m14.148 12.148q0.148-0.148 0.352-0.148t0.352 0.148l1 1-0.703 0.703-0.648-0.648-0.648 0.648q-0.141 0.148-0.352 0.148t-0.352-0.148l-0.648-0.648-0.648 0.648q-0.148 0.148-0.352 0.148t-0.352-0.148l-0.648-0.648-0.648 0.648q-0.148 0.148-0.352 0.148t-0.352-0.148l-0.648-0.648-0.648 0.648q-0.148 0.148-0.352 0.148t-0.352-0.148l-0.648-0.648-0.648 0.648q-0.148 0.148-0.352 0.148t-0.352-0.148l-0.648-0.648-0.648 0.648q-0.148 0.148-0.352 0.148t-0.352-0.148l-0.648-0.648-0.648 0.648q-0.148 0.148-0.352 0.148t-0.352-0.148l-1-1 0.703-0.703 0.648 0.648 0.648-0.648q0.148-0.148 0.352-0.148t0.352 0.148l0.648 0.648 0.648-0.648q0.148-0.148 0.352-0.148t0.352 0.148l0.648 0.648 0.648-0.648q0.148-0.148 0.352-0.148t0.352 0.148l0.648 0.648 0.648-0.648q0.148-0.148 0.352-0.148t0.352 0.148l0.648 0.648 0.648-0.648q0.148-0.148 0.352-0.148t0.352 0.148l0.648 0.648 0.648-0.648q0.148-0.148 0.352-0.148t0.352 0.148l0.648 0.648zm-12.296-0.296q-0.148 0.148-0.352 0.148t-0.352-0.148l-1-1 0.703-0.703 0.648 0.641 0.648-0.641q0.148-0.148 0.352-0.148t0.352 0.148l0.648 0.641 0.5-0.5v-2.289l-1.641-2.453q-0.133-0.203-0.055-0.441t0.312-0.316l1.383-0.453v-2.336h1v-1h2v-1h2v1h2v1h1v2.336l1.383 0.453q0.234 0.078 0.312 0.316t-0.055 0.441l-1.641 2.453v2.289l0.148-0.141q0.148-0.148 0.352-0.148t0.352 0.148l0.648 0.641 0.648-0.641q0.148-0.148 0.352-0.148t0.352 0.148l1 1-0.703 0.703-0.648-0.648-0.648 0.648q-0.141 0.148-0.352 0.148t-0.352-0.148l-0.648-0.648-0.648 0.648q-0.148 0.148-0.352 0.148t-0.352-0.148l-0.648-0.648-0.648 0.648q-0.148 0.148-0.352 0.148t-0.352-0.148l-0.648-0.648-0.648 0.648q-0.148 0.148-0.352 0.148t-0.352-0.148l-0.648-0.648-0.648 0.648q-0.148 0.148-0.352 0.148t-0.352-0.148l-0.648-0.648-0.648 0.648q-0.148 0.148-0.352 0.148t-0.352-0.148l-0.648-0.648zm3.148-8.852v1l3-1 3 1v-1h-1v-1h-4v1h-1z"/>
    </symbol>

    <symbol id="water">
      <path d="m4 9q0-0.281-0.156-0.539-0.008-0.008-0.121-0.176t-0.199-0.297-0.195-0.344-0.164-0.395q-0.031-0.125-0.164-0.125t-0.164 0.125q-0.055 0.18-0.164 0.395t-0.195 0.344-0.199 0.297-0.121 0.176q-0.156 0.258-0.156 0.539 0 0.414 0.293 0.707t0.707 0.293 0.707-0.293 0.293-0.707zm4-1q0 1.656-1.172 2.828t-2.828 1.172-2.828-1.172-1.172-2.828q0-1.133 0.633-2.148 0.047-0.07 0.488-0.707t0.789-1.18 0.777-1.391 0.648-1.574q0.07-0.234 0.266-0.367t0.398-0.133 0.402 0.133 0.262 0.367q0.219 0.727 0.648 1.574t0.777 1.391 0.789 1.18 0.488 0.707q0.633 0.992 0.633 2.148z"/>
    </symbol>

    <symbol id="trash">
      <path d="m4 5.75v4.5q0 0.109-0.07 0.18t-0.18 0.07h-0.5q-0.109 0-0.18-0.07t-0.07-0.18v-4.5q0-0.109 0.07-0.18t0.18-0.07h0.5q0.109 0 0.18 0.07t0.07 0.18zm2 0v4.5q0 0.109-0.07 0.18t-0.18 0.07h-0.5q-0.109 0-0.18-0.07t-0.07-0.18v-4.5q0-0.109 0.07-0.18t0.18-0.07h0.5q0.109 0 0.18 0.07t0.07 0.18zm2 0v4.5q0 0.109-0.07 0.18t-0.18 0.07h-0.5q-0.109 0-0.18-0.07t-0.07-0.18v-4.5q0-0.109 0.07-0.18t0.18-0.07h0.5q0.109 0 0.18 0.07t0.07 0.18zm1 5.656v-7.406h-7v7.406q0 0.172 0.055 0.316t0.113 0.211 0.082 0.066h6.5q0.023 0 0.082-0.066t0.113-0.211 0.055-0.316zm-5.25-8.406h3.5l-0.375-0.914q-0.055-0.07-0.133-0.086h-2.477q-0.078 0.016-0.133 0.086zm7.25 0.25v0.5q0 0.109-0.07 0.18t-0.18 0.07h-0.75v7.406q0 0.648-0.367 1.121t-0.883 0.473h-6.5q-0.516 0-0.883-0.457t-0.367-1.105v-7.438h-0.75q-0.109 0-0.18-0.07t-0.07-0.18v-0.5q0-0.109 0.07-0.18t0.18-0.07h2.414l0.547-1.305q0.117-0.289 0.422-0.492t0.617-0.203h2.5q0.312 0 0.617 0.203t0.422 0.492l0.547 1.305h2.414q0.109 0 0.18 0.07t0.07 0.18z"/>
    </symbol>
  </defs>

  <use xlink:href="#fuel"/>
  <use xlink:href="#options" transform="translate(0, 50)"/>
  <use xlink:href="#map-marker" transform="translate(0, 70)"/>
  <use xlink:href="#pencil" transform="translate(0, 90)"/>
  <use xlink:href="#plus-square-o" transform="translate(0, 110)"/>
  <use xlink:href="#ship" transform="translate(0, 130)"/>
  <use xlink:href="#water" transform="translate(0, 150)"/>
  <use xlink:href="#trash" transform="translate(0, 170)"/>
</svg>
