<?xml version="1.0" encoding="utf-8"?>
<svg version="1.1" xmlns="http://www.w3.org/2000/svg" xmlns:xlink="http://www.w3.org/1999/xlink" width="76" height="5000">
  <defs>
    <symbol id="fuel">
      <path d="M 42.75,19L 42.75,31.4977C 44.5834,31.378 48.9184,32.7881 48.2917,49.0833C 49.0833,53.8333 54.625,53.8333 55.8125,47.5C 57,42.75 53.8333,42.75 52.25,28.5C 52.25,26.9167 52.25,22.1667 45.9167,19L 45.9167,17.4167C 52.25,17.4167 57,25.3333 57,26.9167C 57,28.5 55.4167,28.5 55.4167,28.5C 55.4167,28.5 55.8125,38 57.3958,39.5833C 58.9792,41.1667 58.5833,45.9167 58.5833,49.0833C 58.5833,52.25 53.8333,55.4167 52.25,55.4167C 50.6667,55.4167 45.9167,55.4167 45.9167,50.6667C 45.9167,46.3403 45.2599,36.7598 42.75,35.0854L 42.75,55.4167C 43.6244,55.4167 44.3333,56.1255 44.3333,57L 44.3333,60.1667L 19,60.1667L 19,57C 19,56.1255 19.7089,55.4167 20.5833,55.4167L 20.5833,19C 20.5833,17.2511 22.0011,15.8333 23.75,15.8333L 39.5833,15.8333C 41.3322,15.8333 42.75,17.2511 42.75,19 Z M 25.7291,33.2501L 37.6041,33.25C 38.4786,33.25 39.5833,32.1453 39.5833,31.2709L 39.5833,20.9792C 39.5833,20.1048 38.4786,19 37.6041,19L 25.7292,19C 24.8547,19 23.75,20.1048 23.75,20.9792L 23.75,31.2709C 23.75,32.1453 24.8547,33.2501 25.7291,33.2501 Z "/>
    </symbol>

    <symbol id="water">
      <path d="M 38,19C 40,28 50,36 50,44C 50,52 43,57 38,57C 33,57 26,52 26,44C 26,36 36,28 38,19 Z M 44,35C 44,35 47,40 45.5,50.75C 52,43 44,35 44,35 Z "/>
    </symbol>

    <symbol id="trash">
      <path d="M 25.3333,23.75L 50.6667,23.75C 51.5411,23.75 51.8541,27.3125 51.8541,27.3125L 24.1458,27.3125C 24.1458,27.3125 24.4589,23.75 25.3333,23.75 Z M 35.625,19.7917L 40.375,19.7917C 40.8122,19.7917 41.9583,20.9378 41.9583,21.375C 41.9583,21.8122 40.8122,22.9584 40.375,22.9584L 35.625,22.9584C 35.1878,22.9584 34.0416,21.8122 34.0416,21.375C 34.0416,20.9378 35.1878,19.7917 35.625,19.7917 Z M 27.7083,28.5L 48.2916,28.5C 49.1661,28.5 49.875,29.2089 49.875,30.0834L 48.2916,53.8334C 48.2916,54.7078 47.5828,55.4167 46.7083,55.4167L 29.2917,55.4167C 28.4172,55.4167 27.7083,54.7078 27.7083,53.8334L 26.125,30.0834C 26.125,29.2089 26.8339,28.5 27.7083,28.5 Z M 30.0833,31.6667L 30.4792,52.25L 33.25,52.25L 32.8542,31.6667L 30.0833,31.6667 Z M 36.4167,31.6667L 36.4167,52.25L 39.5833,52.25L 39.5833,31.6667L 36.4167,31.6667 Z M 43.1458,31.6667L 42.75,52.25L 45.5208,52.25L 45.9167,31.6667L 43.1458,31.6667 Z "/>
    </symbol>

    <symbol id="people">
      <path d="M 38,17C 40.9455,17 43.3333,19.3878 43.3333,22.3333C 43.3333,25.2788 40.9455,27.6667 38,27.6667C 35.0545,27.6667 32.6667,25.2788 32.6667,22.3333C 32.6667,19.3878 35.0545,17 38,17 Z M 32.6666,34.3834C 31.9555,34.7389 30.7833,37.8333 31.4262,38.2501L 27.964,37.6132C 30.3193,36.76 30.7911,35.3344 30.9823,32.7335L 30.8009,31.1163C 31.5744,30.4725 32.7185,29.0501 33.7333,29.0502L 42.2666,29.0502C 43.3037,29.0501 44.2149,29.4913 44.9999,30.1593L 45.4999,32.0001C 45.4999,34.1736 47.1556,34.8271 48.886,35.8798L 46.4666,35.8292C 45.8376,35.8068 45.2551,35.9483 44.7188,36.2059C 44.2645,35.4252 43.7029,34.5682 43.3333,34.3834L 43.4534,37.0835C 41.1956,39.1569 40.0666,43.0679 40.0666,43.0679L 39.6764,45.0053L 38.5333,45.05C 37.7661,45.05 37.0129,44.99 36.2782,44.8745C 35.6933,43.3208 34.4183,40.5162 32.4533,39.2079L 32.6666,34.3834 Z M 24.7333,26.95C 27.6789,26.95 30.0667,29.3378 30.0667,32.2833C 30.0667,35.2288 27.6789,37.6167 24.7333,37.6167C 21.7878,37.6167 19.4,35.2288 19.4,32.2833C 19.4,29.3378 21.7878,26.95 24.7333,26.95 Z M 19.4,44.3333C 18.6889,44.6889 17.2667,47.5333 17.2667,47.5333C 17.2667,47.5333 16.5556,48.6 16.2,52.8666L 13,51.8L 14.0667,46.4667C 14.0667,46.4667 16.2,39 20.4666,39.0001L 28.9999,39.0001C 33.2667,39 35.4,46.4667 35.4,46.4667L 36.4666,51.8L 33.2667,52.8667C 32.9111,48.6 32.2001,47.5333 32.2001,47.5333C 32.2001,47.5333 30.7778,44.6889 30.0667,44.3333L 30.4976,54.0204C 28.8762,54.6529 27.112,55 25.2667,55C 23.0173,55 20.8884,54.4843 18.9918,53.5646L 19.4,44.3333 Z M 51.7333,24.931C 54.6788,25.0359 57.0667,27.5087 57.0667,30.4542C 57.0667,33.3997 54.6788,35.7025 51.7333,35.5977C 48.7878,35.4928 46.4,33.02 46.4,30.0745C 46.4,27.129 48.7878,24.8262 51.7333,24.931 Z M 46.4,42.1245C 45.6889,42.4547 44.2667,45.2485 44.2667,45.2485C 44.2667,45.2485 43.5556,46.2898 43.2,50.5438L 40,49.3632L 41.0667,44.0679C 41.0667,44.0679 43.2,36.6772 47.4666,36.8292L 55.9999,37.133C 60.2667,37.2848 62.4,44.8274 62.4,44.8274L 63.4666,50.1988L 60.2667,51.1515C 59.9111,46.8722 59.2001,45.7802 59.2001,45.7802C 59.2001,45.7802 57.7778,42.8851 57.0667,42.5042L 57.4976,52.2067C 55.8762,52.7814 54.112,53.0657 52.2667,53C 50.0173,52.9199 47.8884,52.3284 45.9918,51.3412L 46.4,42.1245 Z "/>
    </symbol>

    <symbol id="position">
      <path d="M11.239 7.237c-.004-.009-.288-.017-.24-.078l.137-.085c.013-.077.072-.162-.007-.304l.047-.125-.1.029s.141-.606.33-.332l-.08.093c.122.122.155.426.195.623.115.06.294.071.088.175.106-.018-.561.286-.648.161-.065-.076.288-.127.278-.157zm-.715-.159c-.077.078.003.128.082.094.114-.05.269-.048.284-.202l.073-.091-.101-.135c-.06-.012-.1.064-.137.095l-.066.017-.062.08.007.044-.08.098zm7 9.167l-.733-1.206-.724-1.186c-.73-1.194-1.388-2.276-1.961-3.296l-.07.067c-.376.156-.942-.509-1.339-.531.192.03.018-.49.018-.524-.153-.189-1.123.021-1.378.055-.479.063-.979.057-1.346.355-.258.21-.262.551-.524.716-.17.106-.356.072-.502.209-.258.245-.553.607-.697.929-.062.135.077.458.043.632-.336 1.063.085 2.538 1.375 2.701.312.039.638.209.955.114.252-.076.474-.248.745-.268.377-.025.22.529.737.379.251-.074.365.172.365.359-.084.391-.268.609.088.883.242.188.442.456.486.78.026.182.196.494-.015.602-.149.075-.259.507-.257.649.031.165.365.481.466.621.146.2.039.436.158.663.122.232.237.41.323.645.111.324.958-.007 1.156-.006.673.004 1.014-.944 1.487-1.235.267-.165.192-.616.51-.848.296-.215.608-.344.636-.741.021-.344-.259-1.062-.104-1.353l.102-.165zm-7.301-7.76c.041.172-.119.645-.154.795-.031.138.442.226.415.295.004-.008.642-.22.705-.275l.144-.323c.121-.081.248-.146.384-.196l.164-.285c.056-.021.71-.123.756-.101.165.075.469.389.583.531l.041.032c-.326-.67-.59-1.314-.796-1.942l-.083.036c-.222 0-.528.251-.663.405-.095.104-.669.337-.732.33.33.035.314.276.288.482-.068.476-1.096.035-1.052.216zm10.904 5.049c-.277 4.807-4.253 8.623-9.13 8.623-2.603 0-4.951-1.086-6.618-2.83-.198-.208-.346-.7-.02-.9l.331-.085c.259-.22-.242-1.111-.044-1.254.617-.441.324-.982-.055-1.429-.161-.19-1.043-1.1-1.143-.937.074-.249-.16-.85-.302-1.087-.239-.398-.553-.643-.679-1.081-.05-.174-.05-.704-.153-.826-.041-.05-.358-.185-.347-.257.305-1.82 1.147-3.458 2.364-4.751l.821-.33c.515-.773.545-.173 1.008-.375.154 0 .331-.634.496-.734.289-.185.068-.185.015-.27-.112-.184 2.411-1.103 2.453-.938.034.14-1.249.809-1.108.788-.326.043-.388.627-.328.625.163-.005 1.182-.774 1.657-.61.466.161 1.301-.37 1.627-.64l.04-.038c.029-.761.195-1.494.481-2.172l-.493-.026c-6.075 0-11 4.925-11 11s4.925 11 11 11c6.074 0 11-4.925 11-11 0-.764-.078-1.509-.227-2.229-.491.864-1.044 1.779-1.646 2.763zm1.873-9.1c0 2.45-1.951 5.373-4.5 9.566-2.549-4.193-4.5-7.116-4.5-9.566 0-2.449 2.139-4.434 4.5-4.434s4.5 1.985 4.5 4.434zm-2.75.066c0-.966-.784-1.75-1.75-1.75s-1.75.784-1.75 1.75.784 1.75 1.75 1.75 1.75-.784 1.75-1.75z"/>
    </symbol>

    <symbol id="navigation">
      <path d="M0 9l24-9-8.986 24-3.014-12z"/>
    </symbol>

    <symbol id="weather">
      <path d="M20.422 11.516c-.178-3.233-3.031-5.778-6.432-5.492-1.087-1.239-2.693-2.024-4.49-2.024-3.172 0-5.754 2.443-5.922 5.516-2.033.359-3.578 2.105-3.578 4.206 0 2.362 1.949 4.278 4.354 4.278h1.326c.771 1.198 2.124 2 3.674 2h10.291c2.406 0 4.355-1.916 4.355-4.278 0-2.101-1.545-3.847-3.578-4.206zm-15.395 4.484h-.673c-1.297 0-2.354-1.022-2.354-2.278 0-2.118 2.104-2.597 3.488-2.512-.05-1.356.137-5.21 4.012-5.21.967 0 1.714.25 2.29.644-1.823.922-3.096 2.746-3.212 4.872-2.022.358-3.697 2.127-3.551 4.484zm14.618 2h-10.291c-1.297 0-2.354-1.022-2.354-2.278 0-2.118 2.104-2.597 3.488-2.512-.05-1.356.137-5.21 4.012-5.21 3.771 0 4.229 3.771 4.012 5.209 1.509-.105 3.488.437 3.488 2.513 0 1.256-1.057 2.278-2.355 2.278z"/>
    </symbol>

    <symbol id="arrow-down">
      <line id="e1_line" x1="0" y1="0" x2="15" y2="15" style="stroke:black;fill:none;stroke-width:1px;"/><line id="e2_line" x1="30" y1="0" x2="15" y2="15" style="stroke:black;fill:none;stroke-width:1px;" />
    </symbol>

    <symbol id="change">
      <path d='M0,0 V32 L16,16 Z' fill="black" />
    </symbol>

    <symbol id="wave">
      <line x1="2" y1="65" x2="45" y2="65" style="stroke:black;fill:none;stroke-width:2px;" />
      <path d="M2.46,65.18q16.72,-38.4,35.7,-18.6" style="fill:none;stroke:black;stroke-width:2px;"/>
      <path d="M45.4,65.2c-41.1,-4.2,-14.5,-28.7,-7.2,-18.6" style="fill:none;stroke:black;stroke-width:2px;"/>
    </symbol>

    <symbol id="arrow">
      <path d="M1.3,-3.8h1.13l-1.5,-2.2l-1.5,2.1h1.0v4.4h0.8Z" style="stroke:black; vector-effect:non-scaling-stroke;stroke-width:1px;" transform="matrix(1.85821 0 0 1.85821 22.6791 35.1791)"/>
      <path d="M-3.2,-3.2l0,6.4h0.9l0,-6.4Z" style="stroke:black; vector-effect:non-scaling-stroke;stroke-width:1px;" transform="matrix(1.66791 0 0 1.66791 28.6343 73.8209)"/>
    </symbol>

    <symbol id="vessel">
      <polygon style="stroke:black;stroke-width:6px;" points="40 0 10 50 10 200 70 200 70 50" />
    </symbol>

    <symbol id="statistics">
      <rect x="21" y="110" style="stroke:black;stroke-width:1px;" width="40" height="5"  ry="0" rx="0"/>
      <rect x="35" y="82" style="stroke:black;stroke-width:1px;" width="10" height="25"  ry="0" rx="0"/>
      <rect x="48" y="87" style="stroke:black;stroke-width:1px;" width="10" height="20"  ry="0" rx="0"/>
      <rect x="23" y="97" style="stroke:black;stroke-width:1px;" width="10" height="10"  ry="0" rx="0"/>
    </symbol>

    <symbol id="overview">
      <rect x="20" y="83" style="stroke:black;stroke-width:1px;" width="15" height="15"  ry="0" rx="0"/>
      <rect x="40" y="83" style="stroke:black;stroke-width:1px;" width="15" height="15"  ry="0" rx="0"/>
      <rect x="20" y="103" style="stroke:black;stroke-width:1px;" width="15" height="15"  ry="0" rx="0"/>
      <rect x="40" y="103" style="stroke:black;stroke-width:1px;" width="15" height="15"  ry="0" rx="0"/>
    </symbol>

    <symbol id="calendar">
      <path d="M20 20h-4v-4h4v4zm-6-10h-4v4h4v-4zm6 0h-4v4h4v-4zm-12 6h-4v4h4v-4zm6 0h-4v4h4v-4zm-6-6h-4v4h4v-4zm16-8v22h-24v-22h3v1c0 1.103.897 2 2 2s2-.897 2-2v-1h10v1c0 1.103.897 2 2 2s2-.897 2-2v-1h3zm-2 6h-20v14h20v-14zm-2-7c0-.552-.447-1-1-1s-1 .448-1 1v2c0 .552.447 1 1 1s1-.448 1-1v-2zm-14 2c0 .552-.447 1-1 1s-1-.448-1-1v-2c0-.552.447-1 1-1s1 .448 1 1v2z"/>
    </symbol>

    <symbol id="fi">
      <path d="M 19.65625,9.34375 C 19.479574,9.34375 19.34375,9.4795734 19.34375,9.65625 L 19.34375,13.0625 C 12.510127,13.995568 7.21875,19.894763 7.21875,26.9375 C 7.2187501,33.979696 12.510887,39.82106 19.34375,40.75 L 19.34375,44.1875 C 19.34375,44.364177 19.479574,44.500001 19.65625,44.5 L 22.8125,44.5 C 22.989177,44.5 23.124999,44.364176 23.125,44.1875 L 23.125,40.75 C 29.957864,39.821059 35.25,33.979696 35.25,26.9375 C 35.249999,19.894762 29.958623,13.995568 23.125,13.0625 L 23.125,9.65625 C 23.125,9.4795737 22.989178,9.34375 22.8125,9.34375 L 19.65625,9.34375 z M 19.3125,17.5625 C 19.322548,17.560444 19.333691,17.564524 19.34375,17.5625 L 19.34375,36.28125 C 14.991204,35.412126 11.75,31.590969 11.75,26.9375 C 11.75,22.294891 14.975208,18.449912 19.3125,17.5625 z M 23.125,17.5625 C 27.477399,18.438245 30.75,22.284136 30.75,26.9375 C 30.75,31.590969 27.477547,35.412127 23.125,36.28125 L 23.125,17.5625 z" style="opacity:1;fill:#000000;fill-opacity:1;fill-rule:nonzero;stroke:none;stroke-width:4.03743029;stroke-linecap:square;stroke-linejoin:miter;marker:none;stroke-miterlimit:4;stroke-dasharray:none;stroke-dashoffset:0;stroke-opacity:1;visibility:visible;display:inline;overflow:visible;enable-background:accumulate" />
    </symbol>

    <symbol id="lambda">
      <path d="M18.3,18.3c0,0-0.1,0-0.1,0H18c-0.1,0-0.2,0-0.2,0c0,0-0.1,0-0.1-0.1c0,0-0.1-0.1-0.2-0.3c-0.1-0.1-0.2-0.3-0.2-0.6 L13.5,7.1C13.3,6.5,13,6,12.8,5.6c-0.3-0.4-0.6-0.7-0.9-1c-0.3-0.2-0.7-0.4-1.1-0.5C10.2,4,9.5,4,8.7,4.1C8.3,4.2,8,4.3,7.7,4.3 L7.4,4.5v2.7l0.7-0.2c0.2-0.1,0.4-0.1,0.7-0.2c0.4-0.1,0.8-0.1,1,0c0.1,0,0.2,0.1,0.3,0.2c0.1,0.1,0.2,0.2,0.3,0.4 c0.1,0.2,0.2,0.5,0.3,0.8L11,9.2L6,20.9h3.3l3.1-7.5l0.1-0.2l1.9,5.2c0.2,0.4,0.3,0.8,0.5,1.1c0.2,0.3,0.4,0.6,0.6,0.8 c0.2,0.2,0.5,0.4,0.8,0.5c0.3,0.1,0.6,0.2,1,0.2c0.4,0,0.8,0,1.2-0.1l0.4-0.1v-2.6L18.3,18.3z"/>
    </symbol>

    <symbol id="speed">
      <path d="M15.91 13.34l2.636-4.026-.454-.406-3.673 3.099c-.675-.138-1.402.068-1.894.618-.736.823-.665 2.088.159 2.824.824.736 2.088.665 2.824-.159.492-.55.615-1.295.402-1.95zm-3.91-10.646v-2.694h4v2.694c-1.439-.243-2.592-.238-4 0zm8.851 2.064l1.407-1.407 1.414 1.414-1.321 1.321c-.462-.484-.964-.927-1.5-1.328zm-18.851 4.242h8v2h-8v-2zm-2 4h8v2h-8v-2zm3 4h7v2h-7v-2zm21-3c0 5.523-4.477 10-10 10-2.79 0-5.3-1.155-7.111-3h3.28c1.138.631 2.439 1 3.831 1 4.411 0 8-3.589 8-8s-3.589-8-8-8c-1.392 0-2.693.369-3.831 1h-3.28c1.811-1.845 4.321-3 7.111-3 5.523 0 10 4.477 10 10z"/>
    </symbol>

    <symbol id="angle">
      <line x1="32" y1="15" x2="13" y2="55" style="stroke:black;fill:none;stroke-width:1px;" />
      <line x1="31.8" y1="14.9" x2="50.3" y2="55.3" style="stroke:black;fill:none;stroke-width:1px;" />
      <line x1="32" y1="15.6" x2="32.1" y2="49.5" style="stroke: black; fill: none; stroke-width: 1px; stroke-dasharray:1px, 1px;" />
      <path d="M31.8,38.8a22.9,22.9,0,0,1,-10.1,-1.6" style="fill:none;stroke:black;stroke-width:1px;"/>
      <circle cx="32.2" cy="50.4" style="fill:none;stroke:black;stroke-width:1px;" r="1.8"/>
    </symbol>

  </defs>

  <use xlink:href="#fuel"/>
  <use xlink:href="#water" transform="translate(0, 350)"/>
  <use xlink:href="#trash" transform="translate(0, 420)"/>
  <use xlink:href="#people" transform="translate(0, 490)"/>
  <use xlink:href="#position" transform="translate(25, 720)"/>
  <use xlink:href="#navigation" transform="translate(25, 790)"/>
  <use xlink:href="#weather" transform="translate(25, 860)"/>
  <use xlink:href="#arrow-down" transform="translate(25, 930)"/>
  <use xlink:href="#change" transform="translate(25, 1000)"/>
  <use xlink:href="#wave" transform="translate(25, 1050)"/>
  <use xlink:href="#arrow" transform="translate(25, 1130)"/>
  <use xlink:href="#vessel" transform="translate(0, 1250)"/>
  <use xlink:href="#statistics" transform="translate(0, 1400)"/>
  <use xlink:href="#overview" transform="translate(0, 1450)"/>
  <use xlink:href="#calendar" transform="translate(25, 1600)"/>
  <use xlink:href="#fi" transform="translate(15, 1650)"/>
  <use xlink:href="#lambda" transform="translate(20, 1720)"/>
  <use xlink:href="#speed" transform="translate(20, 1780)"/>
  <use xlink:href="#angle" transform="translate(0, 1820)"/>
</svg>
