<?xml version="1.0" encoding="utf-8"?>
<svg version="1.1" xmlns="http://www.w3.org/2000/svg" xmlns:xlink="http://www.w3.org/1999/xlink" width="76" height="5000">
  <defs>
    <symbol id="arrow-down">
      <line id="e1_line" x1="0" y1="0" x2="15" y2="15" style="stroke:black;fill:none;stroke-width:1px;"/><line id="e2_line" x1="30" y1="0" x2="15" y2="15" style="stroke:black;fill:none;stroke-width:1px;" />
    </symbol>

    <symbol id="change">
      <path d='M0,0 V32 L16,16 Z' fill="black" />
    </symbol>

    <symbol id="wave">
      <line x1="2" y1="65" x2="45" y2="65" style="stroke:black;fill:none;stroke-width:2px;" />
      <path d="M2.46,65.18q16.72,-38.4,35.7,-18.6" style="fill:none;stroke:black;stroke-width:2px;"/>
      <path d="M45.4,65.2c-41.1,-4.2,-14.5,-28.7,-7.2,-18.6" style="fill:none;stroke:black;stroke-width:2px;"/>
    </symbol>

    <symbol id="arrow">
      <path d="M1.3,-3.8h1.13l-1.5,-2.2l-1.5,2.1h1.0v4.4h0.8Z" style="stroke:black; vector-effect:non-scaling-stroke;stroke-width:1px;" transform="matrix(1.85821 0 0 1.85821 22.6791 35.1791)"/>
      <path d="M-3.2,-3.2l0,6.4h0.9l0,-6.4Z" style="stroke:black; vector-effect:non-scaling-stroke;stroke-width:1px;" transform="matrix(1.66791 0 0 1.66791 28.6343 73.8209)"/>
    </symbol>

    <symbol id="vessel">
      <polygon style="stroke:black;stroke-width:6px;" points="40 0 10 50 10 200 70 200 70 50" />
    </symbol>

    <symbol id="statistics">
      <rect x="21" y="110" style="stroke:black;stroke-width:1px;" width="40" height="5"  ry="0" rx="0"/>
      <rect x="35" y="82" style="stroke:black;stroke-width:1px;" width="10" height="25"  ry="0" rx="0"/>
      <rect x="48" y="87" style="stroke:black;stroke-width:1px;" width="10" height="20"  ry="0" rx="0"/>
      <rect x="23" y="97" style="stroke:black;stroke-width:1px;" width="10" height="10"  ry="0" rx="0"/>
    </symbol>

    <symbol id="overview">
      <rect x="20" y="83" style="stroke:black;stroke-width:1px;" width="15" height="15"  ry="0" rx="0"/>
      <rect x="40" y="83" style="stroke:black;stroke-width:1px;" width="15" height="15"  ry="0" rx="0"/>
      <rect x="20" y="103" style="stroke:black;stroke-width:1px;" width="15" height="15"  ry="0" rx="0"/>
      <rect x="40" y="103" style="stroke:black;stroke-width:1px;" width="15" height="15"  ry="0" rx="0"/>
    </symbol>

    <symbol id="calendar">
      <path d="M20 20h-4v-4h4v4zm-6-10h-4v4h4v-4zm6 0h-4v4h4v-4zm-12 6h-4v4h4v-4zm6 0h-4v4h4v-4zm-6-6h-4v4h4v-4zm16-8v22h-24v-22h3v1c0 1.103.897 2 2 2s2-.897 2-2v-1h10v1c0 1.103.897 2 2 2s2-.897 2-2v-1h3zm-2 6h-20v14h20v-14zm-2-7c0-.552-.447-1-1-1s-1 .448-1 1v2c0 .552.447 1 1 1s1-.448 1-1v-2zm-14 2c0 .552-.447 1-1 1s-1-.448-1-1v-2c0-.552.447-1 1-1s1 .448 1 1v2z"/>
    </symbol>

    <symbol id="fi">
      <path d="M 19.65625,9.34375 C 19.479574,9.34375 19.34375,9.4795734 19.34375,9.65625 L 19.34375,13.0625 C 12.510127,13.995568 7.21875,19.894763 7.21875,26.9375 C 7.2187501,33.979696 12.510887,39.82106 19.34375,40.75 L 19.34375,44.1875 C 19.34375,44.364177 19.479574,44.500001 19.65625,44.5 L 22.8125,44.5 C 22.989177,44.5 23.124999,44.364176 23.125,44.1875 L 23.125,40.75 C 29.957864,39.821059 35.25,33.979696 35.25,26.9375 C 35.249999,19.894762 29.958623,13.995568 23.125,13.0625 L 23.125,9.65625 C 23.125,9.4795737 22.989178,9.34375 22.8125,9.34375 L 19.65625,9.34375 z M 19.3125,17.5625 C 19.322548,17.560444 19.333691,17.564524 19.34375,17.5625 L 19.34375,36.28125 C 14.991204,35.412126 11.75,31.590969 11.75,26.9375 C 11.75,22.294891 14.975208,18.449912 19.3125,17.5625 z M 23.125,17.5625 C 27.477399,18.438245 30.75,22.284136 30.75,26.9375 C 30.75,31.590969 27.477547,35.412127 23.125,36.28125 L 23.125,17.5625 z" style="opacity:1;fill:#000000;fill-opacity:1;fill-rule:nonzero;stroke:none;stroke-width:4.03743029;stroke-linecap:square;stroke-linejoin:miter;marker:none;stroke-miterlimit:4;stroke-dasharray:none;stroke-dashoffset:0;stroke-opacity:1;visibility:visible;display:inline;overflow:visible;enable-background:accumulate" />
    </symbol>

    <symbol id="lambda">
      <path d="M18.3,18.3c0,0-0.1,0-0.1,0H18c-0.1,0-0.2,0-0.2,0c0,0-0.1,0-0.1-0.1c0,0-0.1-0.1-0.2-0.3c-0.1-0.1-0.2-0.3-0.2-0.6 L13.5,7.1C13.3,6.5,13,6,12.8,5.6c-0.3-0.4-0.6-0.7-0.9-1c-0.3-0.2-0.7-0.4-1.1-0.5C10.2,4,9.5,4,8.7,4.1C8.3,4.2,8,4.3,7.7,4.3 L7.4,4.5v2.7l0.7-0.2c0.2-0.1,0.4-0.1,0.7-0.2c0.4-0.1,0.8-0.1,1,0c0.1,0,0.2,0.1,0.3,0.2c0.1,0.1,0.2,0.2,0.3,0.4 c0.1,0.2,0.2,0.5,0.3,0.8L11,9.2L6,20.9h3.3l3.1-7.5l0.1-0.2l1.9,5.2c0.2,0.4,0.3,0.8,0.5,1.1c0.2,0.3,0.4,0.6,0.6,0.8 c0.2,0.2,0.5,0.4,0.8,0.5c0.3,0.1,0.6,0.2,1,0.2c0.4,0,0.8,0,1.2-0.1l0.4-0.1v-2.6L18.3,18.3z"/>
    </symbol>

    <symbol id="speed">
      <path d="M15.91 13.34l2.636-4.026-.454-.406-3.673 3.099c-.675-.138-1.402.068-1.894.618-.736.823-.665 2.088.159 2.824.824.736 2.088.665 2.824-.159.492-.55.615-1.295.402-1.95zm-3.91-10.646v-2.694h4v2.694c-1.439-.243-2.592-.238-4 0zm8.851 2.064l1.407-1.407 1.414 1.414-1.321 1.321c-.462-.484-.964-.927-1.5-1.328zm-18.851 4.242h8v2h-8v-2zm-2 4h8v2h-8v-2zm3 4h7v2h-7v-2zm21-3c0 5.523-4.477 10-10 10-2.79 0-5.3-1.155-7.111-3h3.28c1.138.631 2.439 1 3.831 1 4.411 0 8-3.589 8-8s-3.589-8-8-8c-1.392 0-2.693.369-3.831 1h-3.28c1.811-1.845 4.321-3 7.111-3 5.523 0 10 4.477 10 10z"/>
    </symbol>
  </defs>

  <use xlink:href="#arrow-down" transform="translate(25, 930)"/>
  <use xlink:href="#change" transform="translate(25, 1000)"/>
  <use xlink:href="#wave" transform="translate(25, 1050)"/>
  <use xlink:href="#arrow" transform="translate(25, 1130)"/>
  <use xlink:href="#vessel" transform="translate(0, 1250)"/>
  <use xlink:href="#statistics" transform="translate(0, 1400)"/>
  <use xlink:href="#overview" transform="translate(0, 1450)"/>
  <use xlink:href="#calendar" transform="translate(25, 1600)"/>
  <use xlink:href="#fi" transform="translate(15, 1650)"/>
  <use xlink:href="#lambda" transform="translate(20, 1720)"/>
  <use xlink:href="#speed" transform="translate(20, 1780)"/>
</svg>
